<mxfile host="app.diagrams.net" agent="Mozilla/5.0 (Windows NT 10.0; Win64; x64) AppleWebKit/537.36 (KHTML, like Gecko) Chrome/132.0.0.0 Safari/537.36" version="26.0.14">
  <diagram name="Page-1" id="55dCpRFZY8oMrRABdglo">
    <mxGraphModel dx="1434" dy="772" grid="1" gridSize="10" guides="1" tooltips="1" connect="1" arrows="1" fold="1" page="1" pageScale="1" pageWidth="850" pageHeight="1100" math="0" shadow="0">
      <root>
        <mxCell id="0" />
        <mxCell id="1" parent="0" />
        <mxCell id="x6j9vBt3f9z5MoHauEh5-1" value="" style="rounded=0;whiteSpace=wrap;html=1;" vertex="1" parent="1">
          <mxGeometry x="30" y="40" width="770" height="80" as="geometry" />
        </mxCell>
        <mxCell id="x6j9vBt3f9z5MoHauEh5-2" value="" style="whiteSpace=wrap;html=1;aspect=fixed;" vertex="1" parent="1">
          <mxGeometry x="30" y="120" width="770" height="770" as="geometry" />
        </mxCell>
        <mxCell id="x6j9vBt3f9z5MoHauEh5-3" value="" style="rounded=0;whiteSpace=wrap;html=1;" vertex="1" parent="1">
          <mxGeometry x="30" y="910" width="770" height="80" as="geometry" />
        </mxCell>
        <mxCell id="x6j9vBt3f9z5MoHauEh5-4" value="" style="rounded=0;whiteSpace=wrap;html=1;" vertex="1" parent="1">
          <mxGeometry x="30" y="1030" width="160" height="90" as="geometry" />
        </mxCell>
        <mxCell id="x6j9vBt3f9z5MoHauEh5-5" value="" style="rounded=0;whiteSpace=wrap;html=1;" vertex="1" parent="1">
          <mxGeometry x="330" y="1030" width="160" height="90" as="geometry" />
        </mxCell>
        <mxCell id="x6j9vBt3f9z5MoHauEh5-6" value="" style="rounded=0;whiteSpace=wrap;html=1;" vertex="1" parent="1">
          <mxGeometry x="640" y="1030" width="160" height="90" as="geometry" />
        </mxCell>
        <mxCell id="x6j9vBt3f9z5MoHauEh5-7" value="" style="rounded=0;whiteSpace=wrap;html=1;" vertex="1" parent="1">
          <mxGeometry x="30" y="1200" width="160" height="90" as="geometry" />
        </mxCell>
        <mxCell id="x6j9vBt3f9z5MoHauEh5-8" value="" style="rounded=0;whiteSpace=wrap;html=1;" vertex="1" parent="1">
          <mxGeometry x="330" y="1200" width="160" height="90" as="geometry" />
        </mxCell>
        <mxCell id="x6j9vBt3f9z5MoHauEh5-9" value="" style="rounded=0;whiteSpace=wrap;html=1;" vertex="1" parent="1">
          <mxGeometry x="640" y="1200" width="160" height="90" as="geometry" />
        </mxCell>
        <mxCell id="x6j9vBt3f9z5MoHauEh5-10" value="" style="rounded=0;whiteSpace=wrap;html=1;" vertex="1" parent="1">
          <mxGeometry x="30" y="1350" width="160" height="90" as="geometry" />
        </mxCell>
        <mxCell id="x6j9vBt3f9z5MoHauEh5-11" value="" style="rounded=0;whiteSpace=wrap;html=1;" vertex="1" parent="1">
          <mxGeometry x="330" y="1350" width="160" height="90" as="geometry" />
        </mxCell>
        <mxCell id="x6j9vBt3f9z5MoHauEh5-12" value="" style="rounded=0;whiteSpace=wrap;html=1;" vertex="1" parent="1">
          <mxGeometry x="640" y="1350" width="160" height="90" as="geometry" />
        </mxCell>
        <mxCell id="x6j9vBt3f9z5MoHauEh5-13" value="" style="rounded=0;whiteSpace=wrap;html=1;" vertex="1" parent="1">
          <mxGeometry x="220" y="1510" width="330" height="90" as="geometry" />
        </mxCell>
        <mxCell id="x6j9vBt3f9z5MoHauEh5-14" value="" style="rounded=0;whiteSpace=wrap;html=1;" vertex="1" parent="1">
          <mxGeometry x="40" y="1670" width="160" height="90" as="geometry" />
        </mxCell>
        <mxCell id="x6j9vBt3f9z5MoHauEh5-15" value="" style="rounded=0;whiteSpace=wrap;html=1;" vertex="1" parent="1">
          <mxGeometry x="330" y="1670" width="160" height="90" as="geometry" />
        </mxCell>
        <mxCell id="x6j9vBt3f9z5MoHauEh5-16" value="" style="rounded=0;whiteSpace=wrap;html=1;" vertex="1" parent="1">
          <mxGeometry x="640" y="1670" width="160" height="90" as="geometry" />
        </mxCell>
        <mxCell id="x6j9vBt3f9z5MoHauEh5-17" value="" style="rounded=0;whiteSpace=wrap;html=1;" vertex="1" parent="1">
          <mxGeometry x="30" y="1500" width="770" height="130" as="geometry" />
        </mxCell>
        <mxCell id="x6j9vBt3f9z5MoHauEh5-18" value="" style="rounded=0;whiteSpace=wrap;html=1;" vertex="1" parent="1">
          <mxGeometry x="190" y="1520" width="410" height="90" as="geometry" />
        </mxCell>
        <mxCell id="x6j9vBt3f9z5MoHauEh5-19" value="" style="rounded=0;whiteSpace=wrap;html=1;" vertex="1" parent="1">
          <mxGeometry x="220" y="920" width="340" height="60" as="geometry" />
        </mxCell>
        <mxCell id="x6j9vBt3f9z5MoHauEh5-20" value="" style="rounded=0;whiteSpace=wrap;html=1;" vertex="1" parent="1">
          <mxGeometry x="40" y="1800" width="760" height="140" as="geometry" />
        </mxCell>
      </root>
    </mxGraphModel>
  </diagram>
</mxfile>
